<svg viewBox="0 0 16 16" fill="none" xmlns="http://www.w3.org/2000/svg">
    <path
        d="M2.66669 12.9999V2.99992C2.66669 2.55789 2.84228 2.13397 3.15484 1.82141C3.4674 1.50885 3.89133 1.33325 4.33335 1.33325H12.6667C12.8435 1.33325 13.0131 1.40349 13.1381 1.52851C13.2631 1.65354 13.3334 1.82311 13.3334 1.99992V13.9999C13.3334 14.1767 13.2631 14.3463 13.1381 14.4713C13.0131 14.5963 12.8435 14.6666 12.6667 14.6666H4.33335C3.89133 14.6666 3.4674 14.491 3.15484 14.1784C2.84228 13.8659 2.66669 13.4419 2.66669 12.9999ZM2.66669 12.9999C2.66669 12.5579 2.84228 12.134 3.15484 11.8214C3.4674 11.5088 3.89133 11.3333 4.33335 11.3333H13.3334"
        stroke="currentColor" stroke-width="1.33333" stroke-linecap="round" stroke-linejoin="round" />
</svg>