<svg viewBox="0 0 20 20" fill="none" xmlns="http://www.w3.org/2000/svg">
<path d="M12.9167 6.24992L14.8333 8.16659C14.9891 8.31927 15.1985 8.4048 15.4167 8.4048C15.6348 8.4048 15.8442 8.31927 16 8.16659L17.75 6.41659C17.9027 6.26081 17.9882 6.05138 17.9882 5.83325C17.9882 5.61512 17.9027 5.40569 17.75 5.24992L15.8333 3.33325" stroke="currentColor" stroke-width="1.66667" stroke-linecap="round" stroke-linejoin="round"/>
<path d="M17.5 1.66675L9.5 9.66675" stroke="currentColor" stroke-width="1.66667" stroke-linecap="round" stroke-linejoin="round"/>
<path d="M6.25 17.4999C8.7813 17.4999 10.8333 15.4479 10.8333 12.9166C10.8333 10.3853 8.7813 8.33325 6.25 8.33325C3.71869 8.33325 1.66667 10.3853 1.66667 12.9166C1.66667 15.4479 3.71869 17.4999 6.25 17.4999Z" stroke="currentColor" stroke-width="1.66667" stroke-linecap="round" stroke-linejoin="round"/>
</svg>
